<svg width="20" height="20" viewBox="0 0 20 20" fill="none" xmlns="http://www.w3.org/2000/svg">
<path fill-rule="evenodd" clip-rule="evenodd" d="M5 2.5C4.17157 2.5 3.5 3.17157 3.5 4C3.5 4.82843 4.17157 5.5 5 5.5C5.82843 5.5 6.5 4.82843 6.5 4C6.5 3.17157 5.82843 2.5 5 2.5ZM2 4C2 2.34315 3.34315 1 5 1C6.65685 1 8 2.34315 8 4C8 5.39994 7.0411 6.57591 5.74428 6.90695C5.74806 6.93744 5.75 6.96849 5.75 7V10.5499C6.12503 10.3581 6.54989 10.25 7 10.25H13C13.6904 10.25 14.25 9.69036 14.25 9C14.25 8.96849 14.2519 8.93744 14.2557 8.90695C12.9589 8.57591 12 7.39994 12 6C12 4.34315 13.3431 3 15 3C16.6569 3 18 4.34315 18 6C18 7.39994 17.0411 8.57591 15.7443 8.90695C15.7481 8.93744 15.75 8.96849 15.75 9C15.75 10.5188 14.5188 11.75 13 11.75H7C6.30964 11.75 5.75 12.3096 5.75 13C5.75 13.0315 5.74806 13.0626 5.74428 13.0931C7.04111 13.4241 8 14.6001 8 16C8 17.6569 6.65685 19 5 19C3.34315 19 2 17.6569 2 16C2 14.6001 2.9589 13.4241 4.25572 13.093C4.25195 13.0626 4.25 13.0315 4.25 13V7C4.25 6.96849 4.25194 6.93744 4.25572 6.90695C2.9589 6.57591 2 5.39994 2 4ZM15 4.5C14.1716 4.5 13.5 5.17157 13.5 6C13.5 6.82843 14.1716 7.5 15 7.5C15.8284 7.5 16.5 6.82843 16.5 6C16.5 5.17157 15.8284 4.5 15 4.5ZM5 14.5C4.17157 14.5 3.5 15.1716 3.5 16C3.5 16.8284 4.17157 17.5 5 17.5C5.82843 17.5 6.5 16.8284 6.5 16C6.5 15.1716 5.82843 14.5 5 14.5Z" fill="white"/>
</svg>
